HIERARCHY
ROOT Hips
{
    OFFSET 0.000000 0.000000 0.000000
    CHANNELS 6 Xposition Yposition Zposition Zrotation Xrotation Yrotation
        JOINT Chest
        {
            OFFSET -0.000000 31.966684 -0.000000
            CHANNELS 3 Zrotation Xrotation Yrotation
            JOINT Neck
            {
                OFFSET -0.000000 23.973995 0.000000
                CHANNELS 3 Zrotation Xrotation Yrotation
                JOINT Head
                {
                    OFFSET -0.000000 10.633333 0.000000
                    CHANNELS 3 Zrotation Xrotation Yrotation
                    End Site
                    {
                        OFFSET -0.000000 16.433334 0.000000
                    }
                }
            }
            JOINT LeftCollar
            {
                OFFSET -0.000000 23.973995 0.000000
                CHANNELS 3 Zrotation Xrotation Yrotation
                JOINT LeftShoulder
                {
                    OFFSET 19.333332 -0.000000 0.000000
                    CHANNELS 3 Zrotation Xrotation Yrotation
                    JOINT LeftElbow
                    {
                        OFFSET 20.067463 0.000000 0.000000
                        CHANNELS 3 Zrotation Xrotation Yrotation
                        JOINT LeftWrist
                        {
                            OFFSET 23.490957 0.000000 0.000000
                            CHANNELS 3 Zrotation Xrotation Yrotation
                            End Site
                            {
                                OFFSET 0.000000 -14.500000 0.000000
                            }
                        }
                    }
                }
            }
            JOINT RightCollar
            {
                OFFSET -0.000000 23.973995 0.000000
                CHANNELS 3 Zrotation Xrotation Yrotation
                JOINT RightShoulder
                {
                    OFFSET -19.333332 0.000000 0.000000
                    CHANNELS 3 Zrotation Xrotation Yrotation
                    JOINT RightElbow
                    {
                        OFFSET -20.067463 0.000000 0.000000
                        CHANNELS 3 Zrotation Xrotation Yrotation
                        JOINT RightWrist
                        {
                            OFFSET -23.490957 0.000000 0.000000
                            CHANNELS 3 Zrotation Xrotation Yrotation
                            End Site
                            {
                                OFFSET -0.000000 -14.500000 0.000000
                            }
                        }
                    }
                }
            }
        }
    JOINT LeftHip
    {
        OFFSET 11.599999 0.000000 0.000000
        CHANNELS 3 Zrotation Xrotation Yrotation
        JOINT LeftKnee
        {
            OFFSET -0.000000 -35.131119 0.000000
            CHANNELS 3 Zrotation Xrotation Yrotation
            JOINT LeftAnkle
            {
                OFFSET -0.000000 -37.839104 0.000000
                CHANNELS 3 Zrotation Xrotation Yrotation
                End Site
                {
                    OFFSET -0.000000 -4.833333 16.433334
                }
            }
        }
    }
    JOINT RightHip
    {
        OFFSET -11.599999 0.000000 0.000000
        CHANNELS 3 Zrotation Xrotation Yrotation
        JOINT RightKnee
        {
            OFFSET -0.000000 -35.131119 0.000000
            CHANNELS 3 Zrotation Xrotation Yrotation
            JOINT RightAnkle
            {
                OFFSET -0.000000 -37.839104 0.000000
                CHANNELS 3 Zrotation Xrotation Yrotation
                End Site
                {
                    OFFSET -0.000000 -4.833333 16.433334
                }
            }
        }
    }
}
MOTION
Frames:    10
Frame Time:    0.010000
55.722546    67.241356    -70.425400    3.273970    -3.339198    -102.760704    1.863625    14.745836    -24.592360    11.984743    15.849576    26.330568    -32.981918    -0.970086    27.741755    -4.823541    0.790772    -18.384151    4.702796    3.597008    -62.190002    -4.099292    -0.052334    1.368302    114.198837    0.105750    -22.703608    -5.359443    -0.461372    10.342517    2.360427    -32.372707    -9.580641    -32.236523    -18.934191    60.308544    -69.854057    27.383972    -141.455414    16.749340    0.771906    7.100189    -36.551460    63.307526    21.820520    -7.296777    -26.710518    37.752846    -10.715765    -61.242054    0.593327    12.012794    70.447868    -28.815374    27.694935    -5.354951    13.277422    
55.491894    66.762650    -70.698181    3.254025    -3.076512    -103.059906    2.124645    15.628010    -24.943739    11.626603    15.419430    26.609167    -32.943867    -1.044907    27.900526    -4.757294    0.739358    -18.270658    4.254918    3.963477    -60.837723    -4.231933    -0.083985    1.796018    114.269485    0.466772    -23.321608    -4.797412    -0.414893    10.501040    2.983800    -32.026829    -9.620062    -31.864483    -18.509819    59.653934    -68.232941    27.018583    -142.628586    16.832460    1.010732    7.385832    -37.366825    63.299908    23.967833    -6.293593    -27.143404    38.978260    -9.981376    -61.760696    0.797980    12.598622    71.587982    -29.414803    27.748323    -5.704731    13.640131    
55.258648    66.325226    -70.961296    3.238453    -2.837554    -103.347115    2.316403    16.484617    -25.251703    11.254749    15.031240    26.870539    -32.880165    -1.174647    28.031700    -4.752498    0.784345    -18.125631    3.869375    4.316363    -59.431637    -4.551334    -0.075151    2.134778    114.453896    0.870399    -23.864084    -4.198214    -0.356024    10.695573    3.621229    -31.611641    -9.610647    -31.522766    -18.058964    58.872944    -66.784851    26.530224    -143.657593    16.877598    1.279108    7.553781    -38.013832    63.245255    25.770828    -5.454060    -27.569040    40.036655    -9.247324    -62.225166    1.077101    13.314205    72.643539    -30.130243    27.817167    -6.061023    13.933036    
55.021919    65.932861    -71.216461    3.231793    -2.621938    -103.618683    2.441608    17.298243    -25.520357    10.875441    14.691071    27.115202    -32.803558    -1.357008    28.137501    -4.868659    0.780548    -17.937908    3.668514    4.823396    -58.004845    -4.704922    -0.120864    2.426251    114.585625    1.286460    -24.183653    -3.566053    -0.295763    10.920044    4.276481    -31.138018    -9.549774    -31.176964    -17.576649    57.985844    -65.565437    25.933416    -144.489899    16.888285    1.575664    7.624969    -38.448303    63.152363    27.171124    -4.787194    -27.974110    40.926445    -8.527173    -62.633980    1.412964    14.182485    73.602829    -31.000353    27.905174    -6.407902    14.169978    
54.781425    65.588493    -71.465569    3.238042    -2.427650    -103.868469    2.508217    18.057232    -25.755260    10.497271    14.396798    27.343336    -32.729500    -1.585438    28.221029    -5.082381    0.802767    -17.696470    3.587208    5.442889    -56.533726    -4.984453    -0.105177    2.619769    114.820076    1.682584    -24.354769    -2.912075    -0.228579    11.169497    4.956542    -30.642262    -9.439675    -30.776127    -17.039440    57.039753    -64.627838    25.252174    -145.028229    16.873489    1.897264    7.627636    -38.636436    63.030647    28.127022    -4.284572    -28.352795    41.661880    -7.835567    -62.985004    1.777192    15.192032    74.456627    -32.024792    28.006598    -6.731450    14.362806    
54.537445    65.294357    -71.710289    3.261420    -2.252721    -104.089287    2.525903    18.754528    -25.960640    10.128426    14.139835    27.555656    -32.670120    -1.852141    28.284252    -5.386710    0.844074    -17.390520    3.641487    6.188254    -55.028019    -5.289844    -0.147431    2.722208    115.105484    1.957096    -24.441158    -2.245772    -0.162300    11.437988    5.656712    -30.149799    -9.289938    -30.298782    -16.419176    56.064602    -63.974976    24.517494    -145.230469    16.844698    2.238779    7.591911    -38.562298    62.886982    28.616713    -3.930685    -28.713274    42.271255    -7.187111    -63.276966    2.137486    16.298639    75.198128    -33.165600    28.113836    -7.021232    14.520935    
54.290623    65.052261    -71.951988    3.306164    -2.096100    -104.274200    2.503312    19.386499    -26.138069    9.775265    13.907779    27.751553    -32.630127    -2.151986    28.327379    -5.765132    0.902632    -17.009951    3.802725    7.062758    -53.490883    -5.636368    -0.119640    2.728108    115.461746    2.141342    -24.381725    -1.577036    -0.095230    11.720730    6.376864    -29.690359    -9.110826    -29.715225    -15.705720    55.099190    -63.605404    23.790363    -145.106796    16.813829    2.593940    7.544744    -38.230446    62.722313    28.641491    -3.704051    -29.071009    42.791370    -6.594450    -63.509506    2.465624    17.439192    75.823601    -34.363617    28.218782    -7.271111    14.652829    
54.041695    64.863686    -72.191551    3.376007    -1.958073    -104.417404    2.446472    19.950443    -26.285337    9.443842    13.689497    27.928370    -32.608696    -2.481991    28.347557    -6.205146    0.957983    -16.549454    4.041911    8.080492    -51.926727    -5.995487    -0.156276    2.638902    115.875099    2.135546    -24.314098    -0.909918    -0.033324    12.015187    7.109624    -29.278185    -8.918608    -28.982096    -14.936183    54.169479    -63.515026    23.144516    -144.695145    16.790920    2.956770    7.507136    -37.661488    62.529251    28.230824    -3.577687    -29.435757    43.254353    -6.067930    -63.683430    2.740839    18.545359    76.331284    -35.553860    28.308912    -7.480011    14.767331    
53.791267    64.729965    -72.429237    3.473511    -1.840194    -104.514648    2.358240    20.444574    -26.396759    9.138859    13.475880    28.081793    -32.599701    -2.840005    28.340595    -6.687569    1.011408    -16.008514    4.308361    9.227995    -50.328419    -6.388791    -0.134146    2.448662    116.361252    2.005306    -24.193722    -0.248958    0.039093    12.320804    7.858442    -28.929569    -8.726247    -28.119707    -14.132883    53.288536    -63.609665    22.611538    -144.017624    16.782452    3.322659    7.493091    -36.885666    62.291336    27.444952    -3.520500    -29.798977    43.676167    -5.615783    -63.800137    2.949728    19.554008    76.722588    -36.674358    28.365166    -7.654455    14.872243    
53.539230    64.652313    -72.664658    3.598606    -1.744824    -104.563034    2.238672    20.871662    -26.462931    8.862716    13.255613    28.207474    -32.592209    -3.221245    28.302813    -7.196485    1.058048    -15.390386    4.553591    10.486525    -48.683891    -6.793607    -0.116100    2.147552    116.892563    1.729856    -24.083042    0.408464    0.111526    12.635440    8.623397    -28.612457    -8.542618    -27.178055    -13.339429    52.438313    -63.797119    22.210484    -143.197495    16.790024    3.690297    7.511546    -35.933979    61.986675    26.362129    -3.493849    -30.127539    44.057041    -5.244857    -63.860237    3.084185    20.411034    77.001076    -37.667789    28.367569    -7.806098    14.970722    
